<svg width="243" height="243" viewBox="0 0 243 243" fill="none" xmlns="http://www.w3.org/2000/svg">
<path fill-rule="evenodd" clip-rule="evenodd" d="M94.3262 19.6414C52.9432 38.7134 18.2073 75.5701 6.36222 117.909C-10.9587 179.82 27.226 230.009 91.6499 230.009C156.074 230.009 222.341 179.82 239.662 117.909C240.294 115.651 240.852 113.408 241.337 111.183H236.723C218.328 166.133 159.292 209.785 101.974 209.785C42.704 209.785 7.71459 163.109 23.823 105.532C33.7915 69.9006 60.9923 38.4445 94.3262 19.6414Z" fill="black"/>
<path fill-rule="evenodd" clip-rule="evenodd" d="M81.9551 74.8485L135.557 123.367L124.143 134.149L70.5417 85.6304L81.9551 74.8485Z" fill="black"/>
<path fill-rule="evenodd" clip-rule="evenodd" d="M213.68 76.4283L123.999 134.279L118.062 123.844L207.743 65.9931L213.68 76.4283Z" fill="black"/>
<path d="M98.7901 21.2493C100.078 20.0357 99.085 17.6717 97.3243 17.7606L76.9353 18.7904L53.2923 19.9845C52.144 20.0425 51.3889 21.2047 51.7187 22.4067L60.2767 53.6048C60.6696 55.0373 62.3149 55.6146 63.3161 54.6713L98.7901 21.2493Z" fill="#FF1414"/>
</svg>
