<svg width="325" height="77" viewBox="0 0 325 77" fill="none" xmlns="http://www.w3.org/2000/svg">
<g clip-path="url(#clip0_73_92)">
<path d="M51.9882 15.6363L61.9501 47.1256L67.8124 41.6903L55.4144 2.52072C54.9391 1.02404 53.533 0 51.9486 0C50.3642 0 48.958 1.02404 48.4827 2.52072L36.2036 41.6312L42.0857 47.0665L51.9486 15.6166L51.9882 15.6363Z" fill="white"/>
<path d="M103.877 21.7211C103.877 21.7211 103.877 21.7014 103.877 21.6818C103.897 21.6227 103.917 21.603 103.937 21.5636C103.937 21.5439 103.937 21.5045 103.937 21.4848C103.937 21.4454 103.937 21.4257 103.957 21.3864C103.957 21.347 103.976 21.3273 103.976 21.2879C103.976 21.2879 103.976 21.2485 103.976 21.2288C103.976 21.1894 103.976 21.15 103.996 21.091C103.996 21.0319 103.996 20.9728 104.016 20.9334C104.016 20.9334 104.016 20.9334 104.016 20.9137C104.016 20.8743 104.016 20.8153 104.016 20.7562C104.016 20.7562 104.016 20.638 104.016 20.5789V20.4214C104.016 20.4214 104.016 20.3032 104.016 20.2442V20.2048C104.016 20.2048 104.016 20.126 104.016 20.0866C104.016 20.0669 104.016 20.0472 104.016 20.0078C104.016 19.9881 104.016 19.9488 104.016 19.9094C104.016 19.87 104.016 19.8503 104.016 19.8109C104.016 19.7912 104.016 19.7715 104.016 19.7321C104.016 19.6928 104.016 19.6534 103.996 19.614C103.996 19.614 103.996 19.5943 103.996 19.5746C103.996 19.5352 103.976 19.4958 103.957 19.4564C103.957 19.4564 103.957 19.4564 103.957 19.4367C103.957 19.3974 103.937 19.3383 103.897 19.2989C103.897 19.2989 103.858 19.1807 103.838 19.1413C103.838 19.0823 103.798 19.0429 103.778 18.9838C103.759 18.9444 103.739 18.8853 103.719 18.8459C103.719 18.8459 103.719 18.8459 103.719 18.8263C103.719 18.7869 103.679 18.7475 103.659 18.7081C103.659 18.7081 103.64 18.6884 103.64 18.6687C103.64 18.6293 103.6 18.6096 103.58 18.5702C103.58 18.5506 103.541 18.5112 103.521 18.4915C103.521 18.4718 103.501 18.4521 103.481 18.4324C103.461 18.393 103.442 18.3536 103.402 18.3142C103.402 18.3142 103.402 18.2945 103.402 18.2748C103.224 18.0385 103.006 17.8219 102.768 17.6447C102.768 17.6447 102.768 17.6447 102.748 17.6447C102.729 17.625 102.709 17.6053 102.669 17.5856C102.649 17.5856 102.61 17.5462 102.59 17.5265C102.352 17.3493 102.075 17.2114 101.798 17.113C101.798 17.113 101.778 17.113 101.758 17.113C101.719 17.113 101.679 17.0736 101.639 17.0736C101.6 17.0736 101.58 17.0736 101.56 17.0539C101.54 17.0539 101.501 17.0539 101.481 17.0342C101.441 17.0342 101.402 17.0342 101.382 17.0145C101.362 17.0145 101.342 17.0145 101.322 17.0145C101.283 17.0145 101.223 17.0145 101.184 16.9751C101.124 16.9751 101.065 16.9554 101.025 16.9554C100.847 16.9357 100.689 16.916 100.51 16.916C100.51 16.916 100.411 16.916 100.352 16.916H100.332C100.332 16.916 100.233 16.916 100.194 16.916C100.194 16.916 100.154 16.916 100.134 16.916C100.095 16.916 100.055 16.916 100.015 16.916C99.9956 16.916 99.9757 16.916 99.9361 16.916C99.8965 16.916 99.8767 16.916 99.8569 16.916C99.8173 16.916 99.7975 16.916 99.7579 16.9357C99.7579 16.9357 99.7183 16.9357 99.6985 16.9357C99.6589 16.9357 99.6193 16.9554 99.5796 16.9554C99.5796 16.9554 99.54 16.9554 99.5202 16.9554C99.4806 16.9554 99.441 16.9751 99.4014 16.9948C99.4014 16.9948 99.3816 16.9948 99.3618 16.9948C99.3222 17.0145 99.2826 17.0342 99.2232 17.0342C99.2232 17.0342 99.2232 17.0342 99.2034 17.0342C99.1637 17.0342 99.1241 17.0736 99.0647 17.0933H99.0449C99.0053 17.0933 98.9657 17.1326 98.9261 17.1523C98.9261 17.1523 98.9063 17.1523 98.8865 17.172C98.8469 17.172 98.8073 17.2114 98.7875 17.2311C98.7676 17.2311 98.7478 17.2508 98.728 17.2705C98.6884 17.2705 98.6686 17.3099 98.6488 17.3099C98.6092 17.3296 98.5894 17.3493 98.5696 17.369C98.5696 17.369 98.53 17.3887 98.5102 17.4084C98.4706 17.428 98.431 17.4674 98.3913 17.4871C98.3913 17.4871 98.3913 17.4871 98.3715 17.4871C98.2527 17.5659 98.1537 17.6644 98.0547 17.7628L82.6266 32.0403L73.2786 40.7053L52.1269 60.2802L29.0937 38.9526L22.7561 33.0841L6.08026 17.8219C4.79293 16.6403 2.85204 16.5222 1.44589 17.5659C0.0397313 18.6096 -0.415784 20.5002 0.376416 22.0559L26.8161 74.991C27.4697 76.3104 28.8758 77.0981 30.3414 76.98C31.8267 76.8618 33.0745 75.8772 33.5102 74.4593L37.7286 61.0482L31.8466 55.613L29.2917 63.7462L15.7055 36.5697L17.7454 38.4603L25.4495 45.5892L49.572 67.9408C50.2652 68.5907 51.1564 68.9058 52.0477 68.9058C52.9389 68.9058 53.8301 68.5907 54.5233 67.9408L79.2003 45.0968L87.4986 37.4165L88.4096 36.5697L74.8234 63.7856L72.2487 55.6326L66.3865 61.0679L70.6247 74.4593C71.0604 75.8575 72.328 76.8421 73.7935 76.9603C73.8926 76.9603 73.9718 76.9603 74.0708 76.9603C75.4374 76.9603 76.7049 76.1922 77.3188 74.9713L103.719 22.0756C103.778 21.9575 103.838 21.8196 103.897 21.7014L103.877 21.7211Z" fill="white"/>
<path d="M153.911 48.071L159.12 27.3145H164.606L157.496 54.7666C157.06 56.4405 155.555 57.8191 153.693 57.7206C151.891 57.6812 150.425 56.3421 149.99 54.6288L145.751 37.3973L141.79 54.7666C141.414 56.4012 139.988 57.6812 138.166 57.7206C136.225 57.7994 134.641 56.4405 134.165 54.6288L127.016 27.3145H132.957L138.087 47.8543L142.959 27.3145H148.861L153.911 48.071Z" fill="white"/>
<path d="M177.855 29.6381C178.449 28.0035 180.133 26.9795 181.876 26.9795C183.619 26.9795 185.243 28.0429 185.837 29.6381L196.393 57.3462H190.233L187.639 50.3552H175.835L173.201 57.3462H167.418L177.855 29.6381ZM177.677 45.2547H185.797L181.737 34.0296L177.677 45.2547Z" fill="white"/>
<path d="M215.029 26.8418C223.347 26.8418 229.348 32.927 229.348 42.3206C229.348 51.7142 223.347 57.7993 215.029 57.7993C206.711 57.7993 200.75 51.7142 200.75 42.3206C200.75 32.927 206.711 26.8418 215.029 26.8418ZM215.029 52.5216C220.08 52.5216 223.347 48.6224 223.347 42.3206C223.347 36.6687 220.08 32.0802 215.029 32.0802C209.979 32.0802 206.751 36.0188 206.751 42.3206C206.751 48.6224 209.979 52.5216 215.029 52.5216Z" fill="white"/>
<path d="M258.066 28.3972V33.8916H257.372C255.392 32.8282 252.461 32.1389 250.124 32.1389C247.569 32.0995 245.331 32.9069 243.608 34.9353C242.023 36.9046 241.37 39.8192 241.37 42.3596C241.37 44.9 242.023 47.8934 243.707 49.8627C245.351 51.7139 247.708 52.6 250.223 52.5607C252.5 52.5607 255.431 51.8714 257.432 50.808H258.204V56.263C255.491 57.2476 253.154 57.799 250.262 57.8384C246.46 57.8384 242.796 56.8144 240.083 54.1558C236.716 50.9852 235.389 46.6921 235.389 42.2021C235.389 38.421 236.597 34.443 239.271 31.3906C242.063 28.2594 245.866 26.8809 250.144 26.8809C253.075 26.9202 255.412 27.4717 258.085 28.4169L258.066 28.3972Z" fill="white"/>
<path d="M277.257 26.8418C285.575 26.8418 291.576 32.927 291.576 42.3206C291.576 51.7142 285.575 57.7993 277.257 57.7993C268.938 57.7993 262.977 51.7142 262.977 42.3206C262.977 32.927 268.919 26.8418 277.257 26.8418ZM277.257 52.5216C282.307 52.5216 285.575 48.6224 285.575 42.3206C285.575 36.6687 282.307 32.0802 277.257 32.0802C272.206 32.0802 268.978 36.0188 268.978 42.3206C268.978 48.6224 272.206 52.5216 277.257 52.5216Z" fill="white"/>
<path d="M307.479 29.5002L319.263 47.8542V27.3143H324.531V57.3266H318.966L305.043 35.5854V57.3266H299.795V30.9181C299.795 28.9094 301.122 27.0189 303.28 26.9795C305.221 26.9795 306.528 28.0035 307.519 29.5002H307.479Z" fill="white"/>
</g>
<defs>
<clipPath id="clip0_73_92">
<rect width="325" height="77" fill="white"/>
</clipPath>
</defs>
</svg>
