<svg width="14" height="16" viewBox="0 0 14 16" fill="none" xmlns="http://www.w3.org/2000/svg">
<path d="M5.19998 0H4.29998L3.69998 2.3L3.09998 0H2.09998C2.29998 0.6 2.49998 1.1 2.69998 1.7C2.99998 2.5 3.19998 3.2 3.19998 3.6V6H4.09998V3.6L5.19998 0ZM7.59998 4.5V3C7.59998 2.5 7.49998 2.2 7.29998 1.9C7.09998 1.6 6.79998 1.5 6.39998 1.5C5.99998 1.5 5.69998 1.7 5.49998 2C5.29998 2.2 5.19998 2.5 5.19998 3V4.6C5.19998 5.1 5.29998 5.4 5.49998 5.6C5.69998 5.9 5.99998 6 6.39998 6C6.79998 6 7.09998 5.8 7.29998 5.5C7.49998 5.4 7.59998 5 7.59998 4.5ZM6.79998 4.7C6.79998 5.1 6.69998 5.3 6.39998 5.3C6.09998 5.3 5.99998 5.1 5.99998 4.7V2.8C5.99998 2.4 6.09998 2.2 6.39998 2.2C6.69998 2.2 6.79998 2.4 6.79998 2.8V4.7ZM10.6 6V1.5H9.79998V4.9C9.59998 5.2 9.49998 5.3 9.29998 5.3C9.19998 5.3 9.09998 5.2 9.09998 5.1V1.5H8.29998V5C8.29998 5.3 8.29998 5.5 8.39998 5.7C8.39998 5.9 8.59998 6 8.89998 6C9.19998 6 9.49998 5.8 9.79998 5.5V6H10.6ZM11 10.5C10.7 10.5 10.6 10.7 10.6 11.1V11.5H11.4V11.1C11.4 10.7 11.3 10.5 11 10.5ZM8.09998 10.5C7.99998 10.5 7.79998 10.6 7.69998 10.7V13.4C7.79998 13.5 7.99998 13.6 8.09998 13.6C8.29998 13.6 8.39998 13.4 8.39998 13V11.1C8.39998 10.7 8.29998 10.5 8.09998 10.5Z" fill="black"/>
<path d="M13 8.2998C12.8 7.5998 12.2 6.9998 11.6 6.9998C10 6.7998 8.3 6.7998 6.6 6.7998C4.9 6.7998 3.3 6.7998 1.6 6.9998C1 6.9998 0.4 7.5998 0.2 8.2998C4.47035e-08 9.2998 0 10.3998 0 11.3998C0 12.3998 4.47035e-08 13.4998 0.2 14.4998C0.4 15.1998 0.9 15.6998 1.6 15.7998C3.3 15.9998 4.9 15.9998 6.6 15.9998C8.3 15.9998 9.9 15.9998 11.6 15.7998C12.3 15.6998 12.9 15.1998 13 14.4998C13.2 13.4998 13.2 12.3998 13.2 11.3998C13.2 10.3998 13.2 9.2998 13 8.2998ZM3.8 9.1998H2.8V14.2998H1.9V9.1998H1V8.2998H3.8V9.1998ZM6.2 14.2998H5.4V13.7998C5.1 14.1998 4.8 14.2998 4.5 14.2998C4.2 14.2998 4.1 14.1998 4 13.9998C4 13.8998 3.9 13.6998 3.9 13.2998V9.7998H4.7V13.2998C4.7 13.3998 4.8 13.4998 4.9 13.4998C5.1 13.4998 5.2 13.3998 5.4 13.0998V9.7998H6.2V14.2998ZM9.2 12.8998C9.2 13.2998 9.2 13.5998 9.1 13.7998C9 14.0998 8.8 14.2998 8.5 14.2998C8.2 14.2998 7.9 14.0998 7.7 13.7998V14.1998H6.9V8.2998H7.7V10.1998C8 9.8998 8.2 9.6998 8.5 9.6998C8.8 9.6998 9 9.8998 9.1 10.1998C9.2 10.3998 9.2 10.6998 9.2 11.0998V12.8998ZM12.2 12.1998H10.6V12.9998C10.6 13.3998 10.7 13.5998 11 13.5998C11.2 13.5998 11.3 13.4998 11.4 13.2998V12.7998H12.2V13.3998C12.2 13.5998 12.1 13.6998 12 13.8998C11.8 14.1998 11.5 14.3998 11 14.3998C10.6 14.3998 10.3 14.1998 10 13.8998C9.8 13.6998 9.7 13.2998 9.7 12.8998V11.3998C9.7 10.8998 9.8 10.5998 9.9 10.3998C10.1 10.0998 10.4 9.8998 10.9 9.8998C11.3 9.8998 11.6 10.0998 11.8 10.3998C12 10.5998 12 10.9998 12 11.3998V12.1998H12.2Z" fill="black"/>
</svg>
