<svg width="47" height="47" viewBox="0 0 47 47" fill="none" xmlns="http://www.w3.org/2000/svg">
<path d="M14.8442 7.99016L12.0437 5.18975C7.34374 8.7735 4.24957 14.296 3.9754 20.5627H7.89207C8.18582 15.3731 10.8492 10.8297 14.8442 7.99016ZM39.1079 20.5627H43.0246C42.7308 14.296 39.6367 8.7735 34.9562 5.18975L32.1754 7.99016C36.1312 10.8297 38.8142 15.3731 39.1079 20.5627ZM35.25 21.5418C35.25 15.5297 32.0383 10.4968 26.4375 9.16516V7.8335C26.4375 6.20808 25.1254 4.896 23.5 4.896C21.8746 4.896 20.5625 6.20808 20.5625 7.8335V9.16516C14.9421 10.4968 11.75 15.5102 11.75 21.5418V31.3335L7.83332 35.2502V37.2085H39.1667V35.2502L35.25 31.3335V21.5418ZM23.5 43.0835C23.7742 43.0835 24.0287 43.0639 24.2833 43.0052C25.5562 42.731 26.5942 41.8693 27.1033 40.6943C27.2992 40.2243 27.3971 39.7152 27.3971 39.1668H19.5637C19.5833 41.321 21.3262 43.0835 23.5 43.0835Z" fill="white"/>
</svg>
