<svg width="60" height="60" viewBox="0 0 60 60" fill="none" xmlns="http://www.w3.org/2000/svg">
<path d="M15 22.5H12.5V12.5V10H15H47.5V12.5H15V22.5ZM54.3 40.1C53.9 42 52.875 43.75 51.375 45.125C51.175 45.325 46.05 50.025 35.075 50.025C34.625 50.025 34.175 50.025 33.7 50C28.25 49.8 21.275 48.075 13.5 45H5V25H12.5H15H17.5V15H52.5V32.5H41.8C40.925 33.975 39.35 35 37.5 35H31.75C32.525 36.15 33.9 37.5 36.25 37.5H37.55C40.175 37.5 42.75 36.6 44.8 34.95C47.05 33.15 50.075 33.05 52.275 34.6C53.95 35.8 54.75 37.975 54.3 40.1ZM37.5 25C37.5 23.625 36.375 22.5 35 22.5C33.625 22.5 32.5 23.625 32.5 25H37.5ZM50 27.5C48.625 27.5 47.5 28.625 47.5 30H50V27.5ZM47.5 17.5C47.5 18.875 48.625 20 50 20V17.5H47.5ZM20 20C21.375 20 22.5 18.875 22.5 17.5H20V20ZM20 25H30C30 22.25 32.25 20 35 20C37.75 20 40 22.25 40 25V25.7C41.475 26.575 42.5 28.15 42.5 30H45C45 27.25 47.25 25 50 25V22.5C47.25 22.5 45 20.25 45 17.5H25C25 20.25 22.75 22.5 20 22.5V25ZM12.5 33.75V27.5H7.5V42.5H12.5V33.75ZM50.825 36.65C49.525 35.725 47.75 35.775 46.5 36.775C43.875 38.9 40.725 40 37.55 40H36.25C31.55 40 29.175 36.15 28.575 34.1L28.1 32.5H37.5C38.875 32.5 40 31.375 40 30C40 28.625 38.875 27.5 37.5 27.5H15V33.75V42.9C22.25 45.725 28.75 47.325 33.8 47.5C44.625 47.875 49.625 43.35 49.675 43.3C50.825 42.25 51.55 41 51.85 39.6C52.1 38.425 51.7 37.275 50.825 36.65Z" fill="black"/>
</svg>
