<svg width="354" height="50" viewBox="0 0 354 50" fill="none" xmlns="http://www.w3.org/2000/svg">
<g clip-path="url(#clip0_49_397)">
<path d="M281.038 45.7653L305.971 5.91837H300.719L286.8 29.0816C284.862 32.0408 284.658 32.9082 284.403 33.5204C284.505 32.9082 284.76 32.0918 284.454 29.1327L283.282 6.22449H278.081L280.987 45.7653H281.038Z" fill="white"/>
<path d="M310.406 44.7449L321.318 5.66327H316.168L305.257 44.7959H310.406V44.7449Z" fill="white"/>
<path d="M324.53 44.5918L343.14 44.3367L344.262 40.2551L330.852 40.4082L334.676 26.7347L346.301 26.5816L347.423 22.5L335.798 22.6531L339.469 9.4898L352.929 9.33674L354.051 5.2551L335.441 5.5102L324.53 44.5918Z" fill="white"/>
<path d="M210.014 34.4898C210.116 33.3673 210.065 32.398 210.014 30.9184L207.057 4.54082L187.325 44.2857H192.118L204.252 19.898L207.21 44.5918L224.086 19.4898L222.607 43.8265H227.4L229.899 4.23469L212.053 30.8673C211.237 32.1429 210.575 33.3163 210.014 34.4388V34.4898Z" fill="white"/>
<path fill-rule="evenodd" clip-rule="evenodd" d="M250.191 39.949C258.043 39.949 266.099 33.7755 268.19 26.1224C270.28 18.4694 265.538 12.2959 257.686 12.2959C249.834 12.2959 241.778 18.4694 239.688 26.1224C237.598 33.7755 242.339 39.949 250.191 39.949ZM249.477 42.602C258.859 42.602 268.444 35.2551 270.892 26.1735C273.339 17.0918 267.782 9.7449 258.4 9.7449C249.019 9.7449 239.433 17.0918 236.986 26.1735C234.538 35.2551 240.096 42.602 249.477 42.602Z" fill="white"/>
<path d="M257.788 25.3571C258.247 25.6122 258.043 26.4286 257.431 26.6837L249.834 29.7959C249.325 30 248.866 29.6429 249.019 29.1327L250.701 22.9082C250.854 22.398 251.466 22.0408 251.874 22.2449L257.788 25.3571Z" fill="#E72922"/>
<path d="M62.2546 30.1531C63.2744 26.4796 65.5688 24.6429 68.628 24.5918C71.6872 24.5918 72.6559 26.3265 71.6362 30L68.7809 40.3061H73.6247L76.5819 29.6429C78.2134 23.7755 76.276 20.7653 71.3812 20.8673C68.0161 20.8673 65.3648 22.3469 63.9882 24.1327L64.702 21.4796H59.8583L54.5557 40.4592H59.3994L62.2546 30.102V30.1531Z" fill="white"/>
<path d="M80.049 30.8673C78.5194 36.4286 80.6608 40.7143 88.2068 40.6122C92.6427 40.5612 96.0588 38.9796 97.2825 38.3163L96.3137 35.4592C94.3762 36.3265 92.1328 37.0408 89.6345 37.0408C85.7595 37.0408 83.72 35.2551 84.6378 31.9388L99.7298 31.7347C99.8318 31.4796 100.036 30.9184 100.087 30.6122C101.769 24.6939 99.7298 20.4592 93.0506 20.5612C86.3203 20.6633 81.5786 25.1531 79.998 30.8163L80.049 30.8673ZM92.1838 23.9286C95.09 23.9286 96.6196 25.7143 95.9568 28.8265L85.5046 28.9796C86.5753 25.9184 89.2266 23.9796 92.1838 23.9286Z" fill="white"/>
<path d="M111.049 31.1735C109.315 37.449 111.916 41.0714 117.728 41.0204C122.164 40.9694 125.529 38.3673 125.835 37.2959H125.988L125.121 40.3571H129.608L140.876 0H136.134L129.353 24.2347C129.149 22.9082 127.67 20.9184 123.337 20.9694C117.626 21.0204 112.833 24.8469 111.049 31.1735ZM116.096 31.0714C117.269 26.8878 120.481 24.6939 123.693 24.6939C127.008 24.6939 128.894 26.9898 127.772 31.0204L127.67 31.3776C126.447 35.3571 123.235 37.3469 120.073 37.398C116.81 37.398 114.924 35.4082 116.096 31.1224V31.0714Z" fill="white"/>
<path d="M136.44 30.8673C134.707 37.1429 137.307 40.7653 143.119 40.7143C146.943 40.7143 150.054 38.6735 150.971 37.449L150.258 40.102H154.999L160.302 21.1225H155.56L154.795 23.9796C154.591 22.6531 153.113 20.6633 148.779 20.7143C143.068 20.7653 138.276 24.5918 136.491 30.9184L136.44 30.8673ZM141.488 30.7653C142.661 26.5816 145.873 24.3878 149.085 24.3878C152.399 24.3878 154.285 26.6837 153.164 30.7143C151.991 34.898 148.728 37.0408 145.465 37.0408C142.202 37.0408 140.315 35.051 141.488 30.7653Z" fill="white"/>
<path d="M184.877 20.7143H179.728L170.397 33.0612L168.103 20.9184H162.851L166.42 37.8571L156.937 49.949H161.933L184.877 20.7143Z" fill="white"/>
<path d="M65.4668 5.2551H64.3451H60.4701H60.4191L60.1642 6.22449L59.6543 7.95918H60.929L61.3879 6.27551H63.9372C63.6823 7.14286 63.3254 7.85714 62.5096 8.62245C61.6938 9.33674 60.98 9.69388 59.7053 10.1531L60.4701 10.8673C60.4701 10.8673 60.5211 10.9184 60.5721 10.9184C60.5721 10.9184 60.6231 10.9184 60.725 10.9184C61.7958 10.5102 62.8155 9.94898 63.6313 9.13265C64.549 8.21429 65.1099 7.19388 65.6198 5.35714L65.4668 5.2551Z" fill="white"/>
<path d="M68.322 6.32653C68.7809 6.63265 69.1888 6.9898 69.5457 7.44898H69.5967L70.6674 6.53061C70.3105 6.07143 69.8007 5.66327 69.3928 5.40816H69.2908L68.322 6.22449V6.32653ZM74.0326 5.71429C71.9931 7.5 69.6477 8.82653 67.5573 9.4898L67.9651 10.5612H68.0161C70.3105 9.69388 72.248 8.57143 74.0326 7.14286C74.0835 7.09184 74.1345 7.04082 74.1345 6.9898C74.1345 6.9898 74.1345 6.88776 74.1345 6.83673L74.0326 5.66327V5.71429Z" fill="white"/>
<path d="M81.8845 4.69388C82.0374 5 82.1394 5.30612 82.1904 5.61224H82.2414L82.7513 5.40816C82.7003 5 82.5473 4.69388 82.3943 4.38775H82.3434L81.8335 4.59184L81.8845 4.69388ZM82.8022 4.38775C82.9552 4.69388 83.0572 4.94898 83.1082 5.30612H83.1591L83.669 5.10204C83.618 4.69388 83.5161 4.38775 83.3121 4.13265H83.2611L82.7513 4.33673L82.8022 4.38775ZM78.6723 7.65306C78.2135 9.03061 77.1427 9.89796 75.8171 10.3061L76.6329 10.9184C76.6329 10.9184 76.7348 10.9694 76.7858 10.9694C76.8368 10.9694 76.8368 10.9694 76.9388 10.9694C77.2957 10.7653 77.6526 10.6122 77.9585 10.3571C78.9273 9.64286 79.5901 8.67347 79.947 7.65306H82.0884H82.1394L82.3943 6.68367H81.3236H76.5309H76.4799L76.225 7.65306H77.3977H78.6723ZM81.5786 6.02041H81.6296L81.8845 5H80.8138H77.8056H77.7036L77.4486 5.96939H78.4684H81.5276L81.5786 6.02041Z" fill="white"/>
<path d="M87.34 8.46939L86.6772 10.7653H88.0029L88.6147 8.41837L89.0736 6.68367C89.6344 6.32653 90.2463 5.86735 90.8581 5.40816V5.30612L90.0933 4.64286H89.9913C88.1558 6.22449 86.4733 7.14286 84.4338 8.0102L85.0966 8.72449C85.0966 8.72449 85.2496 8.82653 85.4026 8.72449C86.1674 8.36735 86.8812 7.95918 87.595 7.55102L87.34 8.41837V8.46939Z" fill="white"/>
<path d="M92.1838 9.43878V10.4592H92.2858C94.0193 10.2041 95.4979 9.94898 96.9765 9.64286C97.0275 9.89796 97.0785 10.102 97.1295 10.3571H97.2314L98.4041 9.79592V9.69388C98.2002 8.77551 97.9453 8.0102 97.4354 7.19388H97.3844L96.4157 7.70408C96.5686 8.06122 96.6706 8.36735 96.7726 8.67347C96.0588 8.82653 95.294 8.92857 94.5801 9.03061C95.3449 7.80612 96.1097 6.63265 96.9765 5.10204L95.9058 4.84694H95.8548C94.988 6.42857 94.1723 7.80612 93.3055 9.23469C92.9996 9.23469 92.6936 9.28571 92.3367 9.33674H92.2858L92.1838 9.43878Z" fill="white"/>
<path d="M106.97 8.46939H107.021L107.327 7.34694H106.154H101.616H101.514L101.208 8.41837H102.381H106.97V8.46939Z" fill="white"/>
<path d="M114.975 5.40816C114.975 5.40816 115.383 5.91837 115.536 6.22449H115.638L116.147 5.91837C115.995 5.56122 115.791 5.30612 115.587 5.05102H115.485L115.026 5.35714L114.975 5.40816ZM115.842 4.94898C115.842 4.94898 116.249 5.40816 116.402 5.71428H116.504L116.963 5.40816C116.81 5.05102 116.606 4.79592 116.402 4.54082H116.3L115.842 4.84694V4.94898ZM112.324 5.45918L111.253 5.40816H111.202L110.233 8.92857C110.08 9.43877 110.029 9.79592 110.182 10.051C110.386 10.4592 110.998 10.5102 111.712 10.5102C112.425 10.5102 113.547 10.4592 114.414 10.4082H114.465L114.72 9.28571H114.669C113.598 9.33673 112.833 9.38775 111.967 9.38775C111.661 9.38775 111.508 9.38775 111.406 9.28571C111.406 9.23469 111.406 9.08163 111.406 8.87755L111.559 8.36735C112.884 7.95918 114.159 7.44898 115.281 6.83673L114.771 5.86735H114.72C113.751 6.42857 112.731 6.88775 111.865 7.2449L112.324 5.5102V5.45918Z" fill="white"/>
<path d="M123.592 8.46939H123.643L123.948 7.34694H122.776H118.238H118.136L117.83 8.41837H119.003H123.592V8.46939Z" fill="white"/>
<path fill-rule="evenodd" clip-rule="evenodd" d="M19.783 3.62256C10.8603 7.70419 3.4163 15.6124 0.91796 24.745C-2.80406 38.0103 5.40478 48.7756 19.2222 48.7756C33.0395 48.7756 47.2648 38.0103 50.9868 24.745C51.1398 24.2858 51.2417 23.7756 51.3437 23.3164H50.375C46.449 35.1021 33.7533 44.4899 21.4656 44.4899C9.17779 44.4899 1.17289 34.4389 4.63998 22.0409C6.78142 14.3879 12.5939 7.65317 19.783 3.62256Z" fill="white"/>
<path fill-rule="evenodd" clip-rule="evenodd" d="M17.0804 15.459L28.5524 25.8671L26.105 28.1631L14.6331 17.7549L17.0804 15.459Z" fill="white"/>
<path fill-rule="evenodd" clip-rule="evenodd" d="M45.378 15.8162L26.156 28.2141L24.8813 25.9692L44.1033 13.5713L45.378 15.8162Z" fill="white"/>
<path d="M20.7006 3.97966C20.9555 3.72456 20.7516 3.21436 20.3947 3.21436L16.0098 3.41844L10.9621 3.67354C10.9621 3.67354 10.5543 3.92864 10.6052 4.18374L12.4408 10.8674C12.5427 11.1735 12.8996 11.2756 13.1036 11.0715L20.7006 3.87762V3.97966Z" fill="#E72922"/>
</g>
<defs>
<clipPath id="clip0_49_397">
<rect width="354" height="50" fill="white"/>
</clipPath>
</defs>
</svg>
