<svg width="216" height="31" viewBox="0 0 216 31" fill="none" xmlns="http://www.w3.org/2000/svg">
<g clip-path="url(#clip0_71_131)">
<path d="M171.187 27.5864L186.368 3.83154H183.171L174.695 17.6404C173.516 19.4045 173.391 19.9216 173.236 20.2865C173.298 19.9216 173.454 19.4349 173.267 17.6708L172.553 4.01404H169.387L171.156 27.5864H171.187Z" fill="white"/>
<path d="M189.069 26.9778L195.713 3.6792H192.577L185.934 27.0082H189.069V26.9778Z" fill="white"/>
<path d="M197.669 26.8867L209.001 26.7346L209.684 24.3013L201.519 24.3926L203.847 16.2411L210.925 16.1499L211.608 13.7166L204.53 13.8079L206.765 5.96056L214.961 5.86931L215.644 3.43604L204.313 3.58811L197.669 26.8867Z" fill="white"/>
<path d="M127.941 20.8643C128.003 20.1951 127.972 19.6172 127.941 18.7352L126.14 3.01013L114.126 26.7041H117.044L124.433 12.1653L126.233 26.8866L136.509 11.922L135.609 26.4304H138.527L140.049 2.82764L129.183 18.7047C128.686 19.4651 128.282 20.1647 127.941 20.8338V20.8643Z" fill="white"/>
<path fill-rule="evenodd" clip-rule="evenodd" d="M152.405 24.119C157.186 24.119 162.091 20.4387 163.364 15.8763C164.637 11.3139 161.749 7.63359 156.968 7.63359C152.187 7.63359 147.282 11.3139 146.009 15.8763C144.736 20.4387 147.624 24.119 152.405 24.119ZM151.97 25.7006C157.682 25.7006 163.519 21.3207 165.009 15.9067C166.499 10.4927 163.115 6.11279 157.403 6.11279C151.691 6.11279 145.854 10.4927 144.364 15.9067C142.874 21.3207 146.258 25.7006 151.97 25.7006Z" fill="white"/>
<path d="M157.03 15.42C157.31 15.572 157.186 16.0587 156.813 16.2108L152.187 18.0661C151.877 18.1878 151.598 17.9749 151.691 17.6707L152.715 13.96C152.808 13.6558 153.181 13.4429 153.429 13.5646L157.03 15.42Z" fill="#E72922"/>
<path d="M37.9713 18.2789C38.5922 16.0889 39.9892 14.994 41.852 14.9636C43.7147 14.9636 44.3045 15.9977 43.6836 18.1876L41.9451 24.3317H44.8944L46.695 17.9747C47.6885 14.4769 46.5088 12.6824 43.5284 12.7432C41.4794 12.7432 39.865 13.6253 39.0268 14.6898L39.4615 13.1082H36.5121L33.2834 24.4229H36.2327L37.9713 18.2485V18.2789Z" fill="white"/>
<path d="M48.8061 18.7047C47.8748 22.02 49.1787 24.5749 53.7734 24.5141C56.4744 24.4837 58.5544 23.5408 59.2995 23.1454L58.7096 21.4421C57.5299 21.9592 56.1639 22.385 54.6427 22.385C52.2832 22.385 51.0414 21.3204 51.6002 19.3434L60.7897 19.2217C60.8518 19.0696 60.9759 18.7351 61.007 18.5526C62.0315 15.0243 60.7897 12.4998 56.7227 12.5606C52.6247 12.6215 49.7375 15.2981 48.7751 18.6742L48.8061 18.7047ZM56.1949 14.5681C57.9645 14.5681 58.8959 15.6327 58.4923 17.488L52.128 17.5793C52.78 15.7543 54.3943 14.5985 56.1949 14.5681Z" fill="white"/>
<path d="M67.6818 18.8873C66.6262 22.6285 68.2095 24.788 71.7487 24.7576C74.4497 24.7272 76.4987 23.176 76.6849 22.5372H76.7781L76.2503 24.3622H78.9823L85.8433 0.303223H82.9561L78.8271 14.7508C78.7029 13.96 77.8026 12.7737 75.1637 12.8042C71.6866 12.8346 68.7683 15.1158 67.6818 18.8873ZM70.7553 18.8265C71.4693 16.3324 73.4252 15.0245 75.381 15.0245C77.399 15.0245 78.5477 16.3932 77.8647 18.7961L77.8026 19.009C77.0575 21.3814 75.1016 22.5677 73.1768 22.5981C71.1899 22.5981 70.0412 21.4119 70.7553 18.8569V18.8265Z" fill="white"/>
<path d="M83.1424 18.7047C82.0868 22.4459 83.6701 24.6054 87.2093 24.575C89.5377 24.575 91.4315 23.3583 91.9903 22.6284L91.5557 24.21H94.4429L97.6716 12.8953H94.7844L94.3187 14.5986C94.1945 13.8077 93.2942 12.6215 90.6554 12.6519C87.1783 12.6824 84.26 14.9635 83.1734 18.7351L83.1424 18.7047ZM86.2159 18.6439C86.9299 16.1498 88.8858 14.8419 90.8416 14.8419C92.8596 14.8419 94.0083 16.2106 93.3253 18.6135C92.6112 21.1076 90.6243 22.385 88.6374 22.385C86.6505 22.385 85.5018 21.1988 86.2159 18.6439Z" fill="white"/>
<path d="M112.636 12.6519H109.5L103.819 20.0125L102.422 12.7735H99.2239L101.397 22.8716L95.6226 30.0802H98.6651L112.636 12.6519Z" fill="white"/>
<path d="M39.9271 3.43604H39.2441H36.8847H36.8537L36.6984 4.01394L36.388 5.04808H37.1641L37.4435 4.04435H38.9958C38.8406 4.56142 38.6232 4.98725 38.1265 5.44348C37.6298 5.86931 37.1952 6.08222 36.419 6.35596L36.8847 6.78178C36.8847 6.78178 36.9157 6.8122 36.9468 6.8122C36.9468 6.8122 36.9778 6.8122 37.0399 6.8122C37.6919 6.56887 38.3128 6.2343 38.8095 5.74764C39.3683 5.20016 39.7098 4.59184 40.0203 3.49687L39.9271 3.43604Z" fill="white"/>
<path d="M41.6657 4.07483C41.9451 4.25733 42.1935 4.47024 42.4108 4.74398H42.4418L43.0938 4.19649C42.8765 3.92275 42.566 3.67942 42.3176 3.52734H42.2556L41.6657 4.014V4.07483ZM45.1428 3.70984C43.901 4.7744 42.4729 5.56521 41.2 5.96062L41.4484 6.59935H41.4794C42.8765 6.08228 44.0562 5.41313 45.1428 4.56148C45.1738 4.53107 45.2049 4.50065 45.2049 4.47024C45.2049 4.47024 45.2049 4.40941 45.2049 4.37899L45.1428 3.67942V3.70984Z" fill="white"/>
<path d="M49.9238 3.10166C50.0169 3.28416 50.079 3.46666 50.1101 3.64915H50.1411L50.4515 3.52749C50.4205 3.28416 50.3274 3.10166 50.2342 2.91917H50.2032L49.8927 3.04083L49.9238 3.10166ZM50.4826 2.91917C50.5757 3.10166 50.6378 3.25374 50.6689 3.46666H50.6999L51.0104 3.34499C50.9793 3.10166 50.9172 2.91917 50.793 2.76709H50.762L50.4515 2.88875L50.4826 2.91917ZM47.9679 4.86579C47.6885 5.68702 47.0366 6.20409 46.2294 6.44741L46.7261 6.81241C46.7261 6.81241 46.7882 6.84282 46.8192 6.84282C46.8503 6.84282 46.8503 6.84282 46.9124 6.84282C47.1297 6.72116 47.347 6.62991 47.5333 6.47783C48.1231 6.05201 48.5267 5.47411 48.7441 4.86579H50.048H50.079L50.2342 4.28788H49.5823H46.664H46.633L46.4777 4.86579H47.1918H47.9679ZM49.7375 3.89248H49.7685L49.9238 3.28416H49.2718H47.4401H47.3781L47.2228 3.86206H47.8437H49.7065L49.7375 3.89248Z" fill="white"/>
<path d="M53.2456 5.35248L52.842 6.7212H53.6492L54.0218 5.32207L54.3012 4.28792C54.6427 4.07501 55.0152 3.80127 55.3878 3.52753V3.4667L54.9221 3.07129H54.86C53.7424 4.01418 52.7179 4.56167 51.476 5.07874L51.8796 5.50456C51.8796 5.50456 51.9728 5.56539 52.0659 5.50456C52.5316 5.29165 52.9662 5.04832 53.4009 4.805L53.2456 5.32207V5.35248Z" fill="white"/>
<path d="M56.1949 5.9303V6.53862H56.257C57.3126 6.38654 58.2129 6.23446 59.1132 6.05197C59.1443 6.20405 59.1753 6.32571 59.2064 6.47779H59.2684L59.9825 6.14321V6.08238C59.8583 5.5349 59.7031 5.07866 59.3926 4.592H59.3616L58.7717 4.89616C58.8649 5.10907 58.9269 5.29157 58.989 5.47406C58.5544 5.56531 58.0887 5.62614 57.6541 5.68698C58.1198 4.95699 58.5854 4.25743 59.1132 3.34495L58.4613 3.19287H58.4302C57.9024 4.13576 57.4057 4.95699 56.8779 5.80864C56.6917 5.80864 56.5054 5.83905 56.2881 5.86947H56.257L56.1949 5.9303Z" fill="white"/>
<path d="M65.1981 5.35225H65.2292L65.4155 4.68311H64.7014H61.9384H61.8763L61.69 5.32184H62.404H65.1981V5.35225Z" fill="white"/>
<path d="M70.0723 3.52732C70.0723 3.52732 70.3206 3.83148 70.4138 4.01398H70.4759L70.7863 3.83148C70.6932 3.61857 70.569 3.46649 70.4448 3.31441H70.3827L70.1033 3.49691L70.0723 3.52732ZM70.6001 3.25358C70.6001 3.25358 70.8484 3.52732 70.9416 3.70982H71.0036L71.2831 3.52732C71.1899 3.31441 71.0657 3.16233 70.9416 3.01025H70.8795L70.6001 3.19275V3.25358ZM68.4579 3.55774L67.806 3.52732H67.7749L67.1851 5.62602C67.0919 5.93018 67.0609 6.14309 67.154 6.29517C67.2782 6.5385 67.6507 6.56891 68.0854 6.56891C68.52 6.56891 69.203 6.5385 69.7308 6.50808H69.7618L69.9171 5.83893H69.886C69.2341 5.86935 68.7684 5.89976 68.2406 5.89976C68.0543 5.89976 67.9612 5.89976 67.8991 5.83893C67.8991 5.80852 67.8991 5.71727 67.8991 5.59561L67.9922 5.29145C68.7994 5.04812 69.5756 4.74396 70.2586 4.37897L69.9481 3.80107H69.9171C69.3272 4.13564 68.7063 4.40939 68.1785 4.6223L68.4579 3.58816V3.55774Z" fill="white"/>
<path d="M75.3189 5.35225H75.35L75.5362 4.68311H74.8222H72.0592H71.9971L71.8108 5.32184H72.5248H75.3189V5.35225Z" fill="white"/>
<path fill-rule="evenodd" clip-rule="evenodd" d="M12.1104 2.4624C6.67745 4.89567 2.14481 9.61014 0.623587 15.0546C-1.64273 22.9627 3.35558 29.3805 11.7689 29.3805C20.1822 29.3805 28.8439 22.9627 31.1102 15.0546C31.2033 14.7808 31.2654 14.4767 31.3275 14.2029H30.7377C28.3472 21.229 20.6168 26.8255 13.1349 26.8255C5.65295 26.8255 0.778814 20.8336 2.8899 13.4425C4.19381 8.88016 7.73299 4.86526 12.1104 2.4624Z" fill="white"/>
<path fill-rule="evenodd" clip-rule="evenodd" d="M10.465 9.51904L17.4502 15.7239L15.96 17.0926L8.97479 10.8878L10.465 9.51904Z" fill="white"/>
<path fill-rule="evenodd" clip-rule="evenodd" d="M27.6952 9.73185L15.991 17.1229L15.2149 15.7846L26.919 8.39355L27.6952 9.73185Z" fill="white"/>
<path d="M12.6693 2.67548C12.8245 2.5234 12.7003 2.21924 12.483 2.21924L9.81309 2.3409L6.7396 2.49298C6.7396 2.49298 6.49123 2.64506 6.52228 2.79714L7.63991 6.78162C7.702 6.96412 7.91932 7.02495 8.0435 6.90329L12.6693 2.61464V2.67548Z" fill="#E72922"/>
</g>
<defs>
<clipPath id="clip0_71_131">
<rect width="215.548" height="29.8076" fill="white" transform="translate(0.0648193 0.303223)"/>
</clipPath>
</defs>
</svg>
