<svg width="675" height="125" viewBox="0 0 675 125" fill="none" xmlns="http://www.w3.org/2000/svg">
<path d="M67.6916 110.678C63.9329 90.2129 56.7297 77.3532 52.7628 70.5777L37.8078 77.4915C40.2393 82.4694 42.1023 86.6178 43.8777 91.3191C34.4711 93.255 33.0273 93.5316 28.674 94.4995L33.295 65.3232H70.535L79.9524 5.86434H27.0324L12.4902 97.6798C9.18264 98.233 8.62264 98.233 4.61504 98.7861L4.41545 113.305C4.29652 117.592 5.17561 119.113 6.85561 119.113C7.97561 119.113 8.50512 118.421 10.0936 116.347C11.1526 114.964 11.1526 114.964 17.3174 113.167C30.5087 109.433 39.3248 106.806 47.9047 103.902C49.4392 110.125 49.9678 113.858 50.5575 118.974L67.6916 110.678ZM60.7112 29.2331H39.0112L40.4347 20.2451H62.1347L60.7112 29.2331ZM57.2727 50.9424H35.5727L37.1058 41.2631H58.8058L57.2727 50.9424ZM128.376 94.3612L142.261 6.694H88.781L70.2748 123.538H86.0948L102.192 21.9044H124.312L114.435 84.2671C113.756 88.5536 111.791 90.3512 107.871 90.3512C105.631 90.3512 100.635 90.0747 95.8005 89.6598L100.247 106.668C109.509 106.53 126.558 105.838 128.376 94.3612Z" fill="white"/>
<path d="M263.261 118.698L280.125 12.2251H194.165L177.192 119.389H193.852L195.1 111.508H248.02L246.881 118.698H263.261ZM257.175 53.708H204.255L208.416 27.4355H261.336L257.175 53.708ZM250.407 96.4354H197.487L201.977 68.0887H254.897L250.407 96.4354Z" fill="white"/>
<path d="M434.693 112.061L448.359 25.7761H419.519C420.075 23.1489 422.037 9.87436 422.589 9.0447C422.912 8.76815 424.886 7.80021 425.21 7.52366C425.835 7.10882 425.901 6.694 425.967 6.27917C426.23 4.61985 424.173 4.34331 421.675 4.20503L407.947 3.37536C406.041 15.4054 405.713 17.4796 404.259 25.7761H378.499L372.892 61.1749C372 56.1969 370.724 50.1128 369.369 45.4114L356.899 49.0066C357.389 51.219 357.642 53.1549 358.022 56.0587C355.481 56.1969 352.659 56.3352 348.857 56.4735C356.081 48.8683 362.164 41.4014 370.255 31.8603C373.021 28.5417 373.344 28.2651 375.628 27.9886C376.91 27.8503 377.654 27.5737 377.785 26.7441C377.982 25.4996 376.198 24.3934 375.682 24.1168L364.487 17.8944C360.325 23.8403 355.949 29.3713 353 32.9665C351.443 31.3072 351.325 31.1689 349.369 29.3713C351.26 27.1589 355.71 22.0427 361.622 13.8844C362.681 12.5016 362.703 12.3633 364.405 12.2251C365.827 12.0868 366.431 11.8102 366.54 11.1188C366.759 9.73608 365.092 8.76815 364.2 8.21504L354.694 2.82227C349.416 11.3954 344.196 18.724 341.342 22.5958C338.451 20.5216 338.215 20.2451 337.042 19.692L327.437 31.722C334.865 36.9765 341.085 42.7841 342.953 45.1348C339.356 49.2831 336.244 53.0166 332.551 56.8883C329.471 56.8883 325.411 56.8883 323.333 56.75L322.246 68.9184C322.079 70.8542 322 72.237 323.26 72.237C323.96 72.237 326.647 70.3011 327.229 70.1629C327.53 70.0246 337.926 68.9184 339.348 68.7801L330.675 123.538H344.675L353.654 66.8442C356.52 66.4294 356.8 66.4294 359.106 66.0146C359.376 69.6098 359.31 70.0246 359.424 71.9605L371.534 69.748L363.102 122.984H377.242L383.375 84.2671L391.577 89.9364C398.749 81.7781 402.351 75.8322 406.088 67.2591C406.962 75.0025 409.642 83.7139 413.815 90.0747L425.17 80.257L421.578 102.934C421.096 105.976 419.464 108.327 415.824 108.327C414.004 108.327 409.03 107.912 403.561 107.083L408.825 124.229C411.323 124.367 413.703 124.367 416.363 124.367C421.823 124.367 425.617 123.399 428.474 122.155C432.819 120.357 434.123 115.656 434.693 112.061ZM425.914 75.5556C415.171 65.5997 417.271 45.2731 417.735 40.5717H431.455L425.914 75.5556ZM401.635 40.5717C398.058 57.8563 395.173 65.4615 384.579 76.6618L390.295 40.5717H401.635ZM365.657 101.552C364.928 92.0105 365.183 85.0967 366.231 75.8322L355.113 77.0767C352.845 87.8622 352.354 94.4995 352.138 102.934L365.657 101.552ZM337.491 78.736C337.688 77.4915 336.612 77.215 334.695 76.9384L323.316 75.4174C321.722 83.7139 318.793 96.0205 312.823 109.848L326.363 112.752C329.02 105.7 329.51 103.487 334.624 83.5757C335.071 81.6398 335.255 81.3632 336.572 80.1188C337.057 79.7039 337.403 79.2891 337.491 78.736Z" fill="white"/>
<path d="M584.6 120.219L593.47 64.217H539.29L530.42 120.219H545.54L546.176 116.209H569.836L569.2 120.219H584.6ZM572.048 102.243H548.388L552.154 78.4594H575.814L572.048 102.243ZM521.88 120.219L530.75 64.217H479.51L470.64 120.219H485.48L486.05 116.624H507.61L507.04 120.219H521.88ZM509.888 102.243H488.328L492.094 78.4594H513.654L509.888 102.243Z" fill="white"/>
<path d="M640.709 97.5416L637.752 116.209H656.512L659.469 97.5416H640.709ZM653.74 15.2671L649.294 43.3372L646.827 88.9684H656.067L668.054 43.3372L672.5 15.2671H653.74Z" fill="white"/>
<path d="M577.151 8.88525H568.873C568.232 8.88525 567.631 9.40013 567.531 10.0353L566.734 15.0646C566.634 15.6998 567.072 16.2146 567.712 16.2146H575.99C576.631 16.2146 577.232 15.6998 577.332 15.0646L578.129 10.0353C578.229 9.40013 577.792 8.88525 577.151 8.88525Z" fill="white" stroke="white" stroke-width="2" stroke-linecap="round" stroke-linejoin="round"/>
<path d="M523.073 8.96582H512.25C511.706 8.96582 511.195 9.4033 511.11 9.94297L510.284 15.1571C510.198 15.6967 510.57 16.1342 511.115 16.1342H521.938C522.482 16.1342 522.993 15.6967 523.078 15.1571L523.904 9.94297C523.99 9.4033 523.617 8.96582 523.073 8.96582Z" fill="white" stroke="white" stroke-width="2" stroke-linecap="round" stroke-linejoin="round"/>
<path fill-rule="evenodd" clip-rule="evenodd" d="M533.108 4.04724C533.663 3.12613 534.214 2.22949 535.23 2.22949L535.23 2.23028H558.167C559.183 2.23028 559.45 3.12613 559.713 4.04803L562.392 13.4091H580.173C581.624 13.4091 582.61 14.567 582.382 16.0059L576.623 52.3655C576.395 53.8036 575.043 54.9623 573.591 54.9623H502.315C500.863 54.9623 499.877 53.8044 500.105 52.3655L505.864 16.0051C506.092 14.567 507.444 13.4083 508.896 13.4083H527.464L533.108 4.04724ZM558.632 33.2915C557.119 42.8413 548.082 50.5829 538.446 50.5829C528.811 50.5829 522.226 42.8413 523.739 33.2915C525.251 23.7417 534.288 16 543.924 16C553.559 16 560.144 23.7417 558.632 33.2915Z" fill="white"/>
<path d="M535.23 2.22949H536.73C536.86 1.41126 536.293 0.74796 535.465 0.74796L535.23 2.22949ZM533.108 4.04724L534.387 4.64281L534.387 4.64268L533.108 4.04724ZM535.23 2.23028H533.73C533.6 3.04851 534.167 3.71181 534.995 3.71181L535.23 2.23028ZM559.713 4.04803L558.245 4.64305L558.245 4.6436L559.713 4.04803ZM562.392 13.4091L560.924 14.0046C561.078 14.543 561.562 14.8906 562.157 14.8906L562.392 13.4091ZM527.464 13.4083L527.23 14.8898C527.825 14.8898 528.419 14.5422 528.744 14.0039L527.464 13.4083ZM535.465 0.74796C534.411 0.74796 533.577 1.25243 532.982 1.85628C532.466 2.38117 532.08 3.03487 531.829 3.45179L534.387 4.64268C534.529 4.40702 534.643 4.22027 534.756 4.05473C534.868 3.89044 534.95 3.79016 535.01 3.72962C535.065 3.67326 535.076 3.67699 535.044 3.69229C535.003 3.71225 534.976 3.71102 534.995 3.71102L535.465 0.74796ZM536.73 2.23028L536.73 2.22949H533.73L533.73 2.23028H536.73ZM558.402 0.748749H535.465L534.995 3.71181H557.932L558.402 0.748749ZM561.181 3.45301C561.062 3.03539 560.883 2.3816 560.533 1.85661C560.129 1.2526 559.455 0.748749 558.402 0.748749L557.932 3.71181C557.951 3.71181 557.924 3.71309 557.889 3.69315C557.863 3.67784 557.874 3.67406 557.912 3.73028C557.952 3.79069 558.003 3.89086 558.063 4.05509C558.123 4.22055 558.178 4.40735 558.245 4.64305L561.181 3.45301ZM563.859 12.8135L561.181 3.45246L558.245 4.6436L560.924 14.0046L563.859 12.8135ZM580.408 11.9275H562.626L562.157 14.8906H579.938L580.408 11.9275ZM583.882 16.0059C584.238 13.7533 582.692 11.9275 580.408 11.9275L579.938 14.8906C580.556 14.8906 580.981 15.3806 580.882 16.0059H583.882ZM578.123 52.3655L583.882 16.0059H580.882L575.123 52.3655H578.123ZM573.357 56.4438C575.642 56.4438 577.766 54.6167 578.123 52.3655H575.123C575.024 52.9905 574.444 53.4808 573.826 53.4808L573.357 56.4438ZM502.08 56.4438H573.357L573.826 53.4808H502.549L502.08 56.4438ZM498.605 52.3655C498.248 54.6184 499.796 56.4438 502.08 56.4438L502.549 53.4808C501.93 53.4808 501.506 52.9904 501.605 52.3655H498.605ZM504.364 16.0051L498.605 52.3655H501.605L507.364 16.0051H504.364ZM509.131 11.9267C506.846 11.9267 504.721 13.7533 504.364 16.0051H507.364C507.463 15.3806 508.043 14.8898 508.662 14.8898L509.131 11.9267ZM527.699 11.9267H509.131L508.662 14.8898H527.23L527.699 11.9267ZM531.829 3.45167L526.185 12.8127L528.744 14.0039L534.387 4.64281L531.829 3.45167ZM538.212 52.0645C548.68 52.0645 558.49 43.6547 560.132 33.2915H557.132C555.748 42.0279 547.483 49.1014 538.681 49.1014L538.212 52.0645ZM522.239 33.2915C520.597 43.6547 527.743 52.0645 538.212 52.0645L538.681 49.1014C529.879 49.1014 523.855 42.0279 525.239 33.2915H522.239ZM544.158 14.5185C533.69 14.5185 523.88 22.9283 522.239 33.2915H525.239C526.622 24.555 534.887 17.4815 543.689 17.4815L544.158 14.5185ZM560.132 33.2915C561.773 22.9283 554.627 14.5185 544.158 14.5185L543.689 17.4815C552.491 17.4815 558.515 24.555 557.132 33.2915H560.132Z" fill="white"/>
<path d="M540.523 8.90137H550.139C550.314 8.90137 550.42 9.13298 550.375 9.41877L550.25 10.2023C550.205 10.4881 550.026 10.7197 549.851 10.7197H540.235C540.06 10.7197 539.954 10.4881 540 10.2023L540.124 9.41877C540.169 9.13298 540.348 8.90137 540.523 8.90137Z" fill="#222222"/>
</svg>
