<svg width="65" height="54" viewBox="0 0 65 54" fill="none" xmlns="http://www.w3.org/2000/svg">
<path fill-rule="evenodd" clip-rule="evenodd" d="M6.144 51.9761C8.192 53.2561 10.7733 53.8961 13.888 53.8961C16.9173 53.8961 19.456 53.2561 21.504 51.9761C23.552 50.6961 25.088 48.9467 26.112 46.7281C27.136 44.4667 27.648 41.8641 27.648 38.9201V15.6881C27.648 12.6587 27.1573 10.0134 26.176 7.75206C25.1947 5.44806 23.68 3.65606 21.632 2.37606C19.6267 1.09606 17.0453 0.456055 13.888 0.456055C10.688 0.456055 8.064 1.09606 6.016 2.37606C3.968 3.65606 2.45333 5.44806 1.472 7.75206C0.490667 10.0134 0 12.6587 0 15.6881V38.9201C0 41.8641 0.512 44.4667 1.536 46.7281C2.56 48.9467 4.096 50.6961 6.144 51.9761ZM16.384 44.1041C15.872 44.8294 15.04 45.1921 13.888 45.1921C12.7787 45.1921 11.9467 44.8294 11.392 44.1041C10.8373 43.3787 10.4747 42.5254 10.304 41.5441C10.1333 40.5201 10.048 39.5814 10.048 38.7281V15.8801C10.048 14.9414 10.112 13.9601 10.24 12.9361C10.4107 11.9121 10.752 11.0374 11.264 10.3121C11.8187 9.54405 12.6933 9.16005 13.888 9.16005C15.0827 9.16005 15.936 9.54405 16.448 10.3121C16.96 11.0374 17.28 11.9121 17.408 12.9361C17.5787 13.9601 17.664 14.9414 17.664 15.8801V38.7281C17.664 39.5814 17.5787 40.5201 17.408 41.5441C17.2373 42.5254 16.896 43.3787 16.384 44.1041ZM64.2483 39.8206C64.3801 38.2719 64.446 36.6491 64.446 34.9521C64.446 31.3681 64.0193 28.3387 63.166 25.8641C62.3127 23.3467 60.99 21.4481 59.198 20.1681C57.4487 18.8881 55.23 18.3761 52.542 18.6321C51.134 18.7174 49.8113 18.9947 48.574 19.4641C47.3793 19.9334 46.526 20.4881 46.014 21.1281L46.59 9.67205H62.27V1.16005H38.462L37.758 30.6001H46.206C46.5473 29.1067 47.0807 27.9547 47.806 27.1441C48.574 26.3334 49.534 25.9281 50.686 25.9281C51.966 25.9281 52.9047 26.3334 53.502 27.1441C54.142 27.9547 54.5687 29.0641 54.782 30.4721C54.9953 31.8801 55.102 33.5014 55.102 35.3361C55.102 37.5974 55.038 39.5601 54.91 41.2241C54.7942 42.7297 54.5037 43.921 54.0385 44.7979L64.2483 39.8206ZM41.174 51.0693C39.8206 49.8383 38.8526 48.2632 38.27 46.3441C37.5873 43.9547 37.246 41.1601 37.246 37.9601H46.782C46.782 39.8374 46.8887 41.4161 47.102 42.6961C47.358 43.9761 47.7847 44.9361 48.382 45.5761C48.9178 46.1118 49.6628 46.4084 50.6172 46.4657L41.174 51.0693Z" fill="white"/>
</svg>
