<svg width="86" height="57" viewBox="0 0 86 57" fill="none" xmlns="http://www.w3.org/2000/svg">
<path fill-rule="evenodd" clip-rule="evenodd" d="M35.1081 4.04724C35.6633 3.12613 36.2139 2.22949 37.23 2.22949L37.2299 2.23028H60.167C61.1831 2.23028 61.4498 3.12613 61.7131 4.04803L64.3915 13.4091H82.1729C83.6239 13.4091 84.6095 14.567 84.3816 16.0059L78.6228 52.3655C78.3951 53.8036 77.0433 54.9623 75.5915 54.9623H4.3147C2.86292 54.9623 1.87723 53.8044 2.10513 52.3655L7.86406 16.0051C8.09183 14.567 9.44443 13.4083 10.8962 13.4083H29.4644L35.1081 4.04724ZM60.6315 33.2915C59.119 42.8413 50.0818 50.5829 40.4464 50.5829C30.811 50.5829 24.2261 42.8413 25.7386 33.2915C27.2511 23.7417 36.2883 16 45.9238 16C55.5592 16 62.1441 23.7417 60.6315 33.2915Z" fill="white"/>
<path d="M37.23 2.22949H38.73C38.8596 1.41126 38.2931 0.74796 37.4647 0.74796L37.23 2.22949ZM35.1081 4.04724L36.3872 4.64281L36.3873 4.64268L35.1081 4.04724ZM37.2299 2.23028H35.7299C35.6003 3.04851 36.1668 3.71181 36.9952 3.71181L37.2299 2.23028ZM61.7131 4.04803L60.2452 4.64305L60.2453 4.6436L61.7131 4.04803ZM64.3915 13.4091L62.9237 14.0046C63.0777 14.543 63.5616 14.8906 64.1569 14.8906L64.3915 13.4091ZM29.4644 13.4083L29.2297 14.8898C29.825 14.8898 30.419 14.5422 30.7435 14.0039L29.4644 13.4083ZM37.4647 0.74796C36.4107 0.74796 35.5769 1.25243 34.9824 1.85628C34.4656 2.38117 34.0802 3.03487 33.8289 3.45179L36.3873 4.64268C36.5293 4.40702 36.643 4.22027 36.7559 4.05473C36.8678 3.89044 36.9504 3.79016 37.01 3.72962C37.0655 3.67326 37.0761 3.67699 37.0445 3.69229C37.0033 3.71225 36.9765 3.71102 36.9954 3.71102L37.4647 0.74796ZM38.7299 2.23028L38.73 2.22949H35.73L35.7299 2.23028H38.7299ZM60.4016 0.748749H37.4645L36.9952 3.71181H59.9323L60.4016 0.748749ZM63.1811 3.45301C63.0618 3.03539 62.8835 2.3816 62.5328 1.85661C62.1293 1.2526 61.4552 0.748749 60.4016 0.748749L59.9323 3.71181C59.9514 3.71181 59.9243 3.71309 59.8895 3.69315C59.8627 3.67784 59.8744 3.67406 59.9119 3.73028C59.9523 3.79069 60.0031 3.89086 60.063 4.05509C60.1233 4.22055 60.1778 4.40735 60.2452 4.64305L63.1811 3.45301ZM65.8593 12.8135L63.1809 3.45246L60.2453 4.6436L62.9237 14.0046L65.8593 12.8135ZM82.4075 11.9275H64.6262L64.1569 14.8906H81.9382L82.4075 11.9275ZM85.8816 16.0059C86.2384 13.7533 84.6916 11.9275 82.4075 11.9275L81.9382 14.8906C82.5562 14.8906 82.9807 15.3806 82.8816 16.0059H85.8816ZM80.1228 52.3655L85.8816 16.0059H82.8816L77.1228 52.3655H80.1228ZM75.3568 56.4438C77.6422 56.4438 79.7663 54.6167 80.1228 52.3655H77.1228C77.0238 52.9905 76.4443 53.4808 75.8261 53.4808L75.3568 56.4438ZM4.08005 56.4438H75.3568L75.8261 53.4808H4.54935L4.08005 56.4438ZM0.605131 52.3655C0.248313 54.6184 1.79554 56.4438 4.08005 56.4438L4.54935 53.4808C3.93029 53.4808 3.50616 52.9904 3.60513 52.3655H0.605131ZM6.36406 16.0051L0.605131 52.3655H3.60513L9.36406 16.0051H6.36406ZM11.1309 11.9267C8.84605 11.9267 6.72071 13.7533 6.36406 16.0051H9.36406C9.46296 15.3806 10.0428 14.8898 10.6616 14.8898L11.1309 11.9267ZM29.699 11.9267H11.1309L10.6616 14.8898H29.2297L29.699 11.9267ZM33.8289 3.45167L28.1853 12.8127L30.7435 14.0039L36.3872 4.64281L33.8289 3.45167ZM40.2117 52.0645C50.6805 52.0645 60.4902 43.6547 62.1315 33.2915H59.1315C57.7478 42.0279 49.4831 49.1014 40.681 49.1014L40.2117 52.0645ZM24.2386 33.2915C22.5972 43.6547 29.743 52.0645 40.2117 52.0645L40.681 49.1014C31.8789 49.1014 25.8549 42.0279 27.2386 33.2915H24.2386ZM46.1584 14.5185C35.6897 14.5185 25.88 22.9283 24.2386 33.2915H27.2386C28.6223 24.555 36.887 17.4815 45.6891 17.4815L46.1584 14.5185ZM62.1315 33.2915C63.7729 22.9283 56.6272 14.5185 46.1584 14.5185L45.6891 17.4815C54.4912 17.4815 60.5153 24.555 59.1315 33.2915H62.1315Z" fill="white"/>
</svg>
