<svg width="65" height="54" viewBox="0 0 65 54" fill="none" xmlns="http://www.w3.org/2000/svg">
<path fill-rule="evenodd" clip-rule="evenodd" d="M6.144 51.9761C8.192 53.2561 10.7733 53.8961 13.888 53.8961C16.9173 53.8961 19.456 53.2561 21.504 51.9761C23.552 50.6961 25.088 48.9467 26.112 46.7281C27.136 44.4667 27.648 41.8641 27.648 38.9201V15.6881C27.648 12.6587 27.1573 10.0134 26.176 7.75206C25.1947 5.44806 23.68 3.65606 21.632 2.37606C19.6267 1.09606 17.0453 0.456055 13.888 0.456055C10.688 0.456055 8.064 1.09606 6.016 2.37606C3.968 3.65606 2.45333 5.44806 1.472 7.75206C0.490667 10.0134 0 12.6587 0 15.6881V38.9201C0 41.8641 0.512 44.4667 1.536 46.7281C2.56 48.9467 4.096 50.6961 6.144 51.9761ZM16.384 44.1041C15.872 44.8294 15.04 45.1921 13.888 45.1921C12.7787 45.1921 11.9467 44.8294 11.392 44.1041C10.8373 43.3787 10.4747 42.5254 10.304 41.5441C10.1333 40.5201 10.048 39.5814 10.048 38.7281V15.8801C10.048 14.9414 10.112 13.9601 10.24 12.9361C10.4107 11.9121 10.752 11.0374 11.264 10.3121C11.8187 9.54405 12.6933 9.16005 13.888 9.16005C15.0827 9.16005 15.936 9.54405 16.448 10.3121C16.96 11.0374 17.28 11.9121 17.408 12.9361C17.5787 13.9601 17.664 14.9414 17.664 15.8801V38.7281C17.664 39.5814 17.5787 40.5201 17.408 41.5441C17.2373 42.5254 16.896 43.3787 16.384 44.1041ZM64.6542 39.6227L41.2944 51.0106C39.9309 49.8062 38.9014 48.2933 38.206 46.4721C37.31 44.0827 36.862 41.3521 36.862 38.2801V36.4241H46.718V37.1281V38.1521C46.7607 39.8161 46.8887 41.2027 47.102 42.3121C47.358 43.3787 47.7847 44.1894 48.382 44.7441C48.9793 45.2987 49.8327 45.5761 50.942 45.5761C52.094 45.5761 52.9473 45.2987 53.502 44.7441C54.0567 44.1467 54.4407 43.2934 54.654 42.1841C54.8673 41.0747 54.974 39.7094 54.974 38.0881C54.974 35.4854 54.59 33.4801 53.822 32.0721C53.054 30.6214 51.518 29.8747 49.214 29.8321H48.574H47.486V22.5361H48.254H49.022C51.326 22.5361 52.8833 21.9174 53.694 20.6801C54.5473 19.4427 54.974 17.5014 54.974 14.8561C54.974 12.8081 54.6753 11.2081 54.078 10.0561C53.4807 8.90406 52.3713 8.32806 50.75 8.32806C49.1287 8.32806 48.062 8.96806 47.55 10.2481C47.038 11.5281 46.7607 13.1707 46.718 15.1761V16.3281V17.4801H36.862V14.6641C36.862 11.6347 37.4167 9.07472 38.526 6.98405C39.6353 4.85072 41.214 3.22939 43.262 2.12006C45.31 1.01072 47.806 0.456055 50.75 0.456055C53.694 0.456055 56.2113 0.989388 58.302 2.05605C60.3927 3.12272 61.9713 4.68006 63.038 6.72805C64.1473 8.77606 64.702 11.3147 64.702 14.3441C64.702 17.3734 64.062 19.8907 62.782 21.8961C61.5447 23.9014 60.0087 25.1814 58.174 25.7361C59.454 26.1627 60.5847 26.8667 61.566 27.8481C62.5473 28.8294 63.3153 30.1521 63.87 31.8161C64.4247 33.4374 64.702 35.4641 64.702 37.8961C64.702 38.4838 64.6861 39.0593 64.6542 39.6227Z" fill="#222222"/>
</svg>
