<svg width="60" height="54" viewBox="0 0 60 54" fill="none" xmlns="http://www.w3.org/2000/svg">
<path fill-rule="evenodd" clip-rule="evenodd" d="M6.144 51.9761C8.192 53.2561 10.7733 53.8961 13.888 53.8961C16.9173 53.8961 19.456 53.2561 21.504 51.9761C23.552 50.6961 25.088 48.9467 26.112 46.7281C27.136 44.4667 27.648 41.8641 27.648 38.9201V15.6881C27.648 12.6587 27.1573 10.0134 26.176 7.75206C25.1947 5.44806 23.68 3.65606 21.632 2.37606C19.6267 1.09606 17.0453 0.456055 13.888 0.456055C10.688 0.456055 8.064 1.09606 6.016 2.37606C3.968 3.65606 2.45333 5.44806 1.472 7.75206C0.490667 10.0134 0 12.6587 0 15.6881V38.9201C0 41.8641 0.512 44.4667 1.536 46.7281C2.56 48.9467 4.096 50.6961 6.144 51.9761ZM16.384 44.1041C15.872 44.8294 15.04 45.1921 13.888 45.1921C12.7787 45.1921 11.9467 44.8294 11.392 44.1041C10.8373 43.3787 10.4747 42.5254 10.304 41.5441C10.1333 40.5201 10.048 39.5814 10.048 38.7281V15.8801C10.048 14.9414 10.112 13.9601 10.24 12.9361C10.4107 11.9121 10.752 11.0374 11.264 10.3121C11.8187 9.54405 12.6933 9.16005 13.888 9.16005C15.0827 9.16005 15.936 9.54405 16.448 10.3121C16.96 11.0374 17.28 11.9121 17.408 12.9361C17.5787 13.9601 17.664 14.9414 17.664 15.8801V38.7281C17.664 39.5814 17.5787 40.5201 17.408 41.5441C17.2373 42.5254 16.896 43.3787 16.384 44.1041ZM38.9295 52.1635L49.8068 46.8608L59.268 7.68806V1.16005H35.46V8.71206H49.604L38.9295 52.1635Z" fill="white"/>
</svg>
