<svg width="66" height="54" viewBox="0 0 66 54" fill="none" xmlns="http://www.w3.org/2000/svg">
<path fill-rule="evenodd" clip-rule="evenodd" d="M6.144 51.9761C8.192 53.2561 10.7733 53.8961 13.888 53.8961C16.9173 53.8961 19.456 53.2561 21.504 51.9761C23.552 50.6961 25.088 48.9467 26.112 46.7281C27.136 44.4667 27.648 41.8641 27.648 38.9201V15.6881C27.648 12.6587 27.1573 10.0134 26.176 7.75206C25.1947 5.44806 23.68 3.65606 21.632 2.37606C19.6267 1.09606 17.0453 0.456055 13.888 0.456055C10.688 0.456055 8.064 1.09606 6.016 2.37606C3.968 3.65606 2.45333 5.44806 1.472 7.75206C0.490667 10.0134 0 12.6587 0 15.6881V38.9201C0 41.8641 0.512 44.4667 1.536 46.7281C2.56 48.9467 4.096 50.6961 6.144 51.9761ZM16.384 44.1041C15.872 44.8294 15.04 45.1921 13.888 45.1921C12.7787 45.1921 11.9467 44.8294 11.392 44.1041C10.8373 43.3787 10.4747 42.5254 10.304 41.5441C10.1333 40.5201 10.048 39.5814 10.048 38.7281V15.8801C10.048 14.9414 10.112 13.9601 10.24 12.9361C10.4107 11.9121 10.752 11.0374 11.264 10.3121C11.8187 9.54405 12.6933 9.16005 13.888 9.16005C15.0827 9.16005 15.936 9.54405 16.448 10.3121C16.96 11.0374 17.28 11.9121 17.408 12.9361C17.5787 13.9601 17.664 14.9414 17.664 15.8801V38.7281C17.664 39.5814 17.5787 40.5201 17.408 41.5441C17.2373 42.5254 16.896 43.3787 16.384 44.1041ZM65.5765 39.1731C65.6762 38.067 65.726 36.9159 65.726 35.7201C65.726 32.8614 65.3633 30.3014 64.638 28.0401C63.9127 25.7361 62.718 23.9441 61.054 22.6641C59.4327 21.3414 57.2567 20.7227 54.526 20.8081C52.99 20.8507 51.6247 21.1281 50.43 21.6401C49.278 22.1521 48.4247 22.8774 47.87 23.8161V18.5041C47.87 15.8587 47.9767 13.7894 48.19 12.2961C48.446 10.7601 48.8513 9.67205 49.406 9.03205C50.0033 8.39206 50.814 8.07206 51.838 8.07206C53.4593 8.07206 54.4833 8.60539 54.91 9.67205C55.3367 10.7387 55.55 12.3601 55.55 14.5361H64.894C64.894 14.4081 64.8727 14.2801 64.83 14.1521V13.7041C64.83 10.8454 64.4033 8.43472 63.55 6.47205C62.6967 4.50939 61.31 3.03739 59.39 2.05605C57.5127 1.03205 54.974 0.520054 51.774 0.520054C48.062 0.520054 45.2033 1.28805 43.198 2.82405C41.1927 4.36006 39.7847 6.47205 38.974 9.16005C38.206 11.8481 37.822 14.8774 37.822 18.2481V36.6801C37.822 39.9654 38.2913 42.8881 39.23 45.4481C39.9902 47.4311 41.0704 49.0942 42.4707 50.4372L51.0601 46.2498C50.4162 46.1056 49.8861 45.7957 49.47 45.3201C48.8727 44.6374 48.446 43.7414 48.19 42.6321C47.9767 41.4801 47.87 40.2641 47.87 38.9841V30.7281C48.0833 30.3441 48.382 29.9814 48.766 29.6401C49.15 29.2561 49.598 28.9574 50.11 28.7441C50.6647 28.4881 51.2407 28.3601 51.838 28.3601C53.118 28.3601 54.0353 28.7441 54.59 29.5121C55.1447 30.2801 55.4647 31.3467 55.55 32.7121C55.678 34.0347 55.742 35.5921 55.742 37.3841C55.742 39.2614 55.6353 40.8614 55.422 42.1841C55.3095 43.0557 55.1137 43.7976 54.8344 44.4099L65.5765 39.1731Z" fill="white"/>
</svg>
