<svg width="65" height="54" viewBox="0 0 65 54" fill="none" xmlns="http://www.w3.org/2000/svg">
<path fill-rule="evenodd" clip-rule="evenodd" d="M6.144 51.9761C8.192 53.2561 10.7733 53.8961 13.888 53.8961C16.9173 53.8961 19.456 53.2561 21.504 51.9761C23.552 50.6961 25.088 48.9467 26.112 46.7281C27.136 44.4667 27.648 41.8641 27.648 38.9201V15.6881C27.648 12.6587 27.1573 10.0134 26.176 7.75206C25.1947 5.44806 23.68 3.65606 21.632 2.37606C19.6267 1.09606 17.0453 0.456055 13.888 0.456055C10.688 0.456055 8.064 1.09606 6.016 2.37606C3.968 3.65606 2.45333 5.44806 1.472 7.75206C0.490667 10.0134 0 12.6587 0 15.6881V38.9201C0 41.8641 0.512 44.4667 1.536 46.7281C2.56 48.9467 4.096 50.6961 6.144 51.9761ZM16.384 44.1041C15.872 44.8294 15.04 45.1921 13.888 45.1921C12.7787 45.1921 11.9467 44.8294 11.392 44.1041C10.8373 43.3787 10.4747 42.5254 10.304 41.5441C10.1333 40.5201 10.048 39.5814 10.048 38.7281V15.8801C10.048 14.9414 10.112 13.9601 10.24 12.9361C10.4107 11.9121 10.752 11.0374 11.264 10.3121C11.8187 9.54405 12.6933 9.16005 13.888 9.16005C15.0827 9.16005 15.936 9.54405 16.448 10.3121C16.96 11.0374 17.28 11.9121 17.408 12.9361C17.5787 13.9601 17.664 14.9414 17.664 15.8801V38.7281C17.664 39.5814 17.5787 40.5201 17.408 41.5441C17.2373 42.5254 16.896 43.3787 16.384 44.1041ZM37.054 46.0241V53.0001H37.2135L53.2299 45.1921H48.126L58.11 30.1521C59.3047 28.4027 60.414 26.7174 61.438 25.0961C62.5047 23.4321 63.358 21.7254 63.998 19.9761C64.638 18.1841 64.958 16.2427 64.958 14.1521C64.958 9.84272 63.806 6.49339 61.502 4.10405C59.198 1.71472 55.7633 0.520054 51.198 0.520054C47.8273 0.520054 45.0967 1.20272 43.006 2.56805C40.958 3.89072 39.4433 5.74672 38.462 8.13605C37.5233 10.5254 37.054 13.2561 37.054 16.3281V18.8881H46.718V16.4561C46.718 15.0907 46.846 13.8321 47.102 12.6801C47.358 11.5281 47.8273 10.6107 48.51 9.92805C49.1927 9.20272 50.174 8.84005 51.454 8.84005C52.6487 8.84005 53.566 9.28805 54.206 10.1841C54.846 11.0374 55.166 12.2961 55.166 13.9601C55.166 15.5387 54.8887 17.0321 54.334 18.4401C53.822 19.8054 53.1393 21.1494 52.286 22.4721C51.4753 23.7947 50.6007 25.1814 49.662 26.6321L37.054 46.0241Z" fill="#222222"/>
</svg>
