<svg width="207" height="7" viewBox="0 0 207 7" fill="none" xmlns="http://www.w3.org/2000/svg">
<path d="M207 3.59293C203.448 5.79051 198.674 7 193.554 7C188.433 7 183.664 5.79051 180.112 3.59293C176.794 1.54022 172.427 0.409996 167.827 0.409996C163.226 0.409996 158.86 1.54022 155.541 3.59293C151.989 5.79051 147.215 7 142.099 7C136.983 7 132.21 5.79051 128.653 3.59293C125.335 1.54022 120.968 0.409996 116.368 0.409996C111.767 0.409996 107.401 1.54022 104.083 3.59293C100.526 5.79051 95.7524 7 90.6321 7C85.5118 7 80.7423 5.79051 77.1902 3.59293C73.8719 1.54022 69.5054 0.409996 64.9049 0.409996C60.3044 0.409996 55.9379 1.54022 52.6196 3.59293C49.0631 5.79051 44.2894 7 39.1734 7C34.0574 7 29.2837 5.79051 25.7315 3.59293C22.4133 1.54022 18.0467 0.409996 13.4462 0.409996C8.84575 0.409996 4.47919 1.54022 1.15662 3.59293L0 3.40707C3.55216 1.20949 8.32592 0 13.4462 0C18.5665 0 23.336 1.20949 26.8881 3.40707C30.2064 5.45978 34.5729 6.59 39.1734 6.59C43.7739 6.59 48.1404 5.45978 51.4587 3.40707C55.0108 1.20949 59.7846 0 64.9049 0C70.0252 0 74.7946 1.20949 78.3511 3.40707C81.6694 5.45978 86.0316 6.59 90.6364 6.59C95.2412 6.59 99.6034 5.45978 102.922 3.40707C106.474 1.20949 111.248 0 116.368 0C121.488 0 126.258 1.20949 129.81 3.40707C133.128 5.45978 137.495 6.59 142.095 6.59C146.696 6.59 151.062 5.45978 154.38 3.40707C157.933 1.20949 162.706 0 167.827 0C172.947 0 177.716 1.20949 181.273 3.40707C184.591 5.45978 188.953 6.59 193.558 6.59C198.163 6.59 202.525 5.45978 205.843 3.40707L207 3.59293Z" fill="white"/>
</svg>
